<svg xmlns="http://www.w3.org/2000/svg" viewBox="0 0 161.83 178.38"><defs><style>.cls-1{fill:#8c26dd;}.cls-2{fill:#5d009a;}</style></defs><title>logo_edgar</title><g id="Capa_2" data-name="Capa 2"><g id="Capa_1-2" data-name="Capa 1"><path class="cls-1" d="M85.39,178.38s51.15-27.51,67.08-60.81,7.93-51.39,2.16-57.67S25.07,128.47,25.07,128.47,34.72,147.49,85.39,178.38Z"/><path class="cls-2" d="M86.79,61.48S69.66,28.55,33.72,36.64-9.94,79.93,13,123c4.14,7.9,15.43,6.59,35.19,0S136.66,84.63,159.62,54c4.33-5.65,1.51-7.72-3.39-11.1S113.33,19.71,86.79,61.48Z"/><path class="cls-2" d="M87.52,43.28S107.83,31.8,114.9,15.55c2.65-8.12-2.47-13.07-6.36-14.66S97.59-1,92.64,7.43,86.64,32.51,87.52,43.28Z"/></g></g></svg>